<svg width="34" height="36" viewBox="0 0 34 36" fill="none" xmlns="http://www.w3.org/2000/svg">
    <path d="M12.5252 27.749L15.8696 20.9558V35.7626H3.98964C3.58291 35.7626 3.19283 35.601 2.90522 35.3134C2.61762 35.0258 2.45604 34.6357 2.45604 34.229V19.8002H11.816L8.78484 25.9202C8.74836 25.995 8.73485 26.0789 8.74603 26.1614C8.75721 26.2439 8.79257 26.3212 8.84764 26.3836C8.90272 26.446 8.97504 26.4906 9.05549 26.512C9.13593 26.5333 9.22089 26.5303 9.29964 26.5034L11.1284 25.8806L11.7512 27.7094C11.7797 27.7869 11.8303 27.8544 11.8968 27.9034C11.9633 27.9524 12.0427 27.9808 12.1252 27.985C12.2076 27.9892 12.2895 27.9691 12.3607 27.9271C12.4318 27.8852 12.489 27.8232 12.5252 27.749ZM25.2152 25.9202C25.2517 25.995 25.2652 26.0789 25.254 26.1614C25.2429 26.2439 25.2075 26.3212 25.1524 26.3836C25.0974 26.446 25.025 26.4906 24.9446 26.512C24.8641 26.5333 24.7792 26.5303 24.7004 26.5034L22.8716 25.8806L22.2488 27.7094C22.2222 27.7885 22.1726 27.858 22.1064 27.9089C22.0401 27.9598 21.9603 27.9898 21.8769 27.9952C21.7936 28.0006 21.7105 27.9811 21.6383 27.9392C21.566 27.8973 21.5079 27.8348 21.4712 27.7598L18.1304 20.9594V35.7626H30.0104C30.4172 35.7626 30.8073 35.601 31.0949 35.3134C31.3825 35.0258 31.544 34.6357 31.544 34.229V19.8002H22.184L25.2152 25.9202ZM15.8552 11.8082H1.69644C1.29342 11.8082 0.906582 11.9668 0.619589 12.2497C0.332596 12.5327 0.168518 12.9172 0.162842 13.3202V16.0706C0.162842 16.4773 0.324417 16.8674 0.612023 17.155C0.754431 17.2974 0.923493 17.4104 1.10956 17.4875C1.29562 17.5645 1.49505 17.6042 1.69644 17.6042H15.8696L15.8552 11.8082ZM32.2892 11.8082H18.1304V17.6186H32.3036C32.7104 17.6186 33.1005 17.457 33.3881 17.1694C33.6757 16.8818 33.8372 16.4917 33.8372 16.085V13.3202C33.8344 12.9153 33.6716 12.528 33.3843 12.2427C33.097 11.9575 32.7085 11.7974 32.3036 11.7974L32.2892 11.8082ZM23.3072 9.72019H17V9.74179V9.72019H10.6928C9.90283 9.72088 9.12517 9.52414 8.43053 9.14786C7.73588 8.77158 7.14627 8.22768 6.71527 7.5656C6.28428 6.90351 6.02555 6.14422 5.96261 5.35672C5.89967 4.56922 6.03451 3.77847 6.35488 3.05634C6.67525 2.3342 7.17099 1.70356 7.79705 1.22173C8.42311 0.739891 9.15965 0.422135 9.93974 0.297331C10.7198 0.172527 11.5187 0.244631 12.2639 0.507092C13.009 0.769553 13.6768 1.21405 14.2064 1.80019L17 4.89619L19.79 1.80019C20.3195 1.21428 20.9869 0.769892 21.7318 0.507391C22.4766 0.24489 23.2751 0.172587 24.055 0.297046C24.8348 0.421506 25.5712 0.738786 26.1973 1.22008C26.8234 1.70137 27.3193 2.33143 27.6401 3.05304C27.9609 3.77466 28.0964 4.56498 28.0342 5.35223C27.9721 6.13949 27.7142 6.89875 27.2842 7.56107C26.8541 8.22339 26.2654 8.7678 25.5715 9.14485C24.8776 9.52191 24.1005 9.71968 23.3108 9.72019H23.3072ZM14.066 6.48019L11.8052 3.96019C11.6649 3.80466 11.4932 3.68061 11.3015 3.59622C11.1098 3.51183 10.9023 3.46902 10.6928 3.47059C10.2947 3.47059 9.91286 3.62875 9.63133 3.91028C9.3498 4.19181 9.19164 4.57365 9.19164 4.97179C9.19164 5.36994 9.3498 5.75177 9.63133 6.0333C9.91286 6.31483 10.2947 6.47299 10.6928 6.47299L14.066 6.48019ZM19.934 6.48019H23.3072C23.7054 6.48019 24.0872 6.32203 24.3687 6.0405C24.6503 5.75897 24.8084 5.37714 24.8084 4.97899C24.8084 4.58085 24.6503 4.19901 24.3687 3.91748C24.0872 3.63595 23.7054 3.47779 23.3072 3.47779C23.0983 3.47553 22.8913 3.51733 22.6996 3.60044C22.508 3.68356 22.336 3.80614 22.1948 3.96019L19.934 6.48019Z" fill="#23D613"/>
    <path d="M12.5252 27.749L15.8696 20.9558V35.7626H3.98964C3.58291 35.7626 3.19283 35.601 2.90522 35.3134C2.61762 35.0258 2.45604 34.6357 2.45604 34.229V19.8002H11.816L8.78484 25.9202C8.74836 25.995 8.73485 26.0789 8.74603 26.1614C8.75721 26.2439 8.79257 26.3212 8.84764 26.3836C8.90272 26.446 8.97504 26.4906 9.05549 26.512C9.13593 26.5333 9.22089 26.5303 9.29964 26.5034L11.1284 25.8806L11.7512 27.7094C11.7797 27.7869 11.8303 27.8544 11.8968 27.9034C11.9633 27.9524 12.0427 27.9808 12.1252 27.985C12.2076 27.9892 12.2895 27.9691 12.3607 27.9271C12.4318 27.8852 12.489 27.8232 12.5252 27.749ZM25.2152 25.9202C25.2517 25.995 25.2652 26.0789 25.254 26.1614C25.2429 26.2439 25.2075 26.3212 25.1524 26.3836C25.0974 26.446 25.025 26.4906 24.9446 26.512C24.8641 26.5333 24.7792 26.5303 24.7004 26.5034L22.8716 25.8806L22.2488 27.7094C22.2222 27.7885 22.1726 27.858 22.1064 27.9089C22.0401 27.9598 21.9603 27.9898 21.8769 27.9952C21.7936 28.0006 21.7105 27.9811 21.6383 27.9392C21.566 27.8973 21.5079 27.8348 21.4712 27.7598L18.1304 20.9594V35.7626H30.0104C30.4172 35.7626 30.8073 35.601 31.0949 35.3134C31.3825 35.0258 31.544 34.6357 31.544 34.229V19.8002H22.184L25.2152 25.9202ZM15.8552 11.8082H1.69644C1.29342 11.8082 0.906582 11.9668 0.619589 12.2497C0.332596 12.5327 0.168518 12.9172 0.162842 13.3202V16.0706C0.162842 16.4773 0.324417 16.8674 0.612023 17.155C0.754431 17.2974 0.923493 17.4104 1.10956 17.4875C1.29562 17.5645 1.49505 17.6042 1.69644 17.6042H15.8696L15.8552 11.8082ZM32.2892 11.8082H18.1304V17.6186H32.3036C32.7104 17.6186 33.1005 17.457 33.3881 17.1694C33.6757 16.8818 33.8372 16.4917 33.8372 16.085V13.3202C33.8344 12.9153 33.6716 12.528 33.3843 12.2427C33.097 11.9575 32.7085 11.7974 32.3036 11.7974L32.2892 11.8082ZM23.3072 9.72019H17V9.74179V9.72019H10.6928C9.90283 9.72088 9.12517 9.52414 8.43053 9.14786C7.73588 8.77158 7.14627 8.22768 6.71527 7.5656C6.28428 6.90351 6.02555 6.14422 5.96261 5.35672C5.89967 4.56922 6.03451 3.77847 6.35488 3.05634C6.67525 2.3342 7.17099 1.70356 7.79705 1.22173C8.42311 0.739891 9.15965 0.422135 9.93974 0.297331C10.7198 0.172527 11.5187 0.244631 12.2639 0.507092C13.009 0.769553 13.6768 1.21405 14.2064 1.80019L17 4.89619L19.79 1.80019C20.3195 1.21428 20.9869 0.769892 21.7318 0.507391C22.4766 0.24489 23.2751 0.172587 24.055 0.297046C24.8348 0.421506 25.5712 0.738786 26.1973 1.22008C26.8234 1.70137 27.3193 2.33143 27.6401 3.05304C27.9609 3.77466 28.0964 4.56498 28.0342 5.35223C27.9721 6.13949 27.7142 6.89875 27.2842 7.56107C26.8541 8.22339 26.2654 8.7678 25.5715 9.14485C24.8776 9.52191 24.1005 9.71968 23.3108 9.72019H23.3072ZM14.066 6.48019L11.8052 3.96019C11.6649 3.80466 11.4932 3.68061 11.3015 3.59622C11.1098 3.51183 10.9023 3.46902 10.6928 3.47059C10.2947 3.47059 9.91286 3.62875 9.63133 3.91028C9.3498 4.19181 9.19164 4.57365 9.19164 4.97179C9.19164 5.36994 9.3498 5.75177 9.63133 6.0333C9.91286 6.31483 10.2947 6.47299 10.6928 6.47299L14.066 6.48019ZM19.934 6.48019H23.3072C23.7054 6.48019 24.0872 6.32203 24.3687 6.0405C24.6503 5.75897 24.8084 5.37714 24.8084 4.97899C24.8084 4.58085 24.6503 4.19901 24.3687 3.91748C24.0872 3.63595 23.7054 3.47779 23.3072 3.47779C23.0983 3.47553 22.8913 3.51733 22.6996 3.60044C22.508 3.68356 22.336 3.80614 22.1948 3.96019L19.934 6.48019Z" fill="url(#paint0_linear)"/>
    <defs>
        <linearGradient id="paint0_linear" x1="17.172" y1="6.37362" x2="17.172" y2="30.602" gradientUnits="userSpaceOnUse">
            <stop stop-color="#2289e4"/>
            <stop offset="1" stop-color="#00a0fb"/>
        </linearGradient>
    </defs>
</svg>
