 <svg viewBox="0 0 34 39" xmlns="http://www.w3.org/2000/svg" id="tap">
        <path d="M24.8855 38.5956C18.8593 40.2103 12.6431 36.6214 11.0284 30.5952L5.57103 10.2279C5.05724 8.31044 6.19912 6.33265 8.11662 5.81886C10.0341 5.30507 12.0119 6.44694 12.5257 8.36444L14.8785 17.1452C15.2729 16.809 15.7458 16.5529 16.2788 16.4101C17.6702 16.0372 19.0929 16.5361 19.9659 17.5705C20.4075 17.1023 20.9796 16.7478 21.6458 16.5693C23.0372 16.1965 24.4604 16.6952 25.3328 17.7297C25.7744 17.2616 26.3465 16.907 27.0127 16.7285C28.9297 16.2148 30.908 17.3566 31.4218 19.2741L32.886 24.7385C34.5007 30.7647 30.9118 36.9809 24.8855 38.5956ZM8.64905 7.80591C7.8274 8.02607 7.33792 8.87387 7.55808 9.69551L13.0155 30.0627C14.3366 34.9931 19.4227 37.9296 24.3531 36.6085C29.2835 35.2874 32.22 30.2013 30.8989 25.2709L29.4347 19.8065C29.2146 18.9849 28.3668 18.4954 27.5451 18.7155C26.7235 18.9357 26.234 19.7835 26.4542 20.6052C26.6011 21.1536 26.2753 21.7179 25.7269 21.8649C25.1784 22.0118 24.6141 21.686 24.4671 21.1376L24.0678 19.6473C23.8476 18.8257 22.9998 18.3362 22.1782 18.5563C21.3565 18.7765 20.8671 19.6243 21.0872 20.4459C21.2342 20.9944 20.9083 21.5587 20.3599 21.7057C19.8115 21.8526 19.2471 21.5268 19.1002 20.9784L18.7008 19.4881C18.4807 18.6664 17.6329 18.177 16.8112 18.3971C15.9896 18.6173 15.5001 19.4651 15.7203 20.2867C15.8672 20.8352 15.5414 21.3995 14.993 21.5465C14.4445 21.6934 13.8802 21.3676 13.7332 20.8192L10.5387 8.89687C10.3185 8.07523 9.47069 7.58575 8.64905 7.80591Z"
              fill="white"/>
        <path d="M8.64905 7.80591C7.8274 8.02607 7.33792 8.87387 7.55808 9.69551L13.0155 30.0627C14.3366 34.9931 19.4227 37.9296 24.3531 36.6085C29.2835 35.2874 32.22 30.2013 30.8989 25.2709L29.4347 19.8065C29.2146 18.9849 28.3668 18.4954 27.5451 18.7155C26.7235 18.9357 26.234 19.7835 26.4542 20.6052C26.6011 21.1536 26.2753 21.7179 25.7269 21.8649C25.1784 22.0118 24.6141 21.686 24.4671 21.1376L24.0678 19.6473C23.8476 18.8257 22.9998 18.3362 22.1782 18.5563C21.3565 18.7765 20.8671 19.6243 21.0872 20.4459C21.2342 20.9944 20.9083 21.5587 20.3599 21.7057C19.8115 21.8526 19.2471 21.5268 19.1002 20.9784L18.7008 19.4881C18.4807 18.6664 17.6329 18.177 16.8112 18.3971C15.9896 18.6173 15.5001 19.4651 15.7203 20.2867C15.8672 20.8352 15.5414 21.3995 14.993 21.5465C14.4445 21.6934 13.8802 21.3676 13.7332 20.8192L10.5387 8.89687C10.3185 8.07523 9.47069 7.58575 8.64905 7.80591Z"
              fill="white"/>
        <path d="M24.8855 38.5956C18.8593 40.2103 12.6431 36.6214 11.0284 30.5952L5.57103 10.2279C5.05724 8.31044 6.19912 6.33265 8.11662 5.81886C10.0341 5.30507 12.0119 6.44694 12.5257 8.36444L14.8785 17.1452C15.2729 16.809 15.7458 16.5529 16.2788 16.4101C17.6702 16.0372 19.0929 16.5361 19.9659 17.5705C20.4075 17.1023 20.9796 16.7478 21.6458 16.5693C23.0372 16.1965 24.4604 16.6952 25.3328 17.7297C25.7744 17.2616 26.3465 16.907 27.0127 16.7285C28.9297 16.2148 30.908 17.3566 31.4218 19.2741L32.886 24.7385C34.5007 30.7647 30.9118 36.9809 24.8855 38.5956ZM8.64905 7.80591C7.8274 8.02607 7.33792 8.87387 7.55808 9.69551L13.0155 30.0628C14.3366 34.9931 19.4227 37.9296 24.3531 36.6085C29.2835 35.2874 32.22 30.2013 30.8989 25.2709L29.4347 19.8065C29.2146 18.9849 28.3668 18.4954 27.5451 18.7156C26.7235 18.9357 26.234 19.7835 26.4542 20.6052C26.6011 21.1536 26.2753 21.7179 25.7269 21.8649C25.1784 22.0118 24.6141 21.686 24.4671 21.1376L24.0678 19.6473C23.8476 18.8257 22.9998 18.3362 22.1782 18.5563C21.3565 18.7765 20.8671 19.6243 21.0872 20.4459C21.2342 20.9944 20.9083 21.5587 20.3599 21.7057C19.8115 21.8526 19.2471 21.5268 19.1002 20.9784L18.7008 19.4881C18.4807 18.6664 17.6329 18.177 16.8112 18.3971C15.9896 18.6173 15.5001 19.4651 15.7203 20.2867C15.8672 20.8352 15.5414 21.3995 14.993 21.5465C14.4445 21.6934 13.8802 21.3676 13.7332 20.8192L10.5387 8.89687C10.3185 8.07523 9.47069 7.58575 8.64905 7.80591Z"
              fill="black"/>
        <path d="M16.294 12.4524C16.2906 12.451 16.287 12.4493 16.2831 12.4471C16.271 12.4401 16.2492 12.4237 16.2335 12.3708C16.2162 12.3121 16.2156 12.2306 16.2456 12.1505C16.6155 11.1608 16.7736 10.0995 16.7039 9.03592C16.6069 7.55654 16.0735 6.13913 15.1709 4.96293C14.2684 3.78674 13.0374 2.90459 11.6335 2.42804C10.2296 1.95148 8.71595 1.90193 7.28391 2.28565C5.85187 2.66936 4.56577 3.46911 3.58825 4.58376C2.61073 5.6984 1.98569 7.07789 1.79218 8.54776C1.59867 10.0176 1.84537 11.5119 2.50109 12.8416C2.97252 13.7975 3.64014 14.6375 4.45528 15.3097C4.5213 15.3641 4.56158 15.4349 4.5759 15.4944C4.58881 15.5481 4.57806 15.5732 4.57108 15.5853C4.56884 15.5892 4.56654 15.5925 4.5643 15.5954C3.63744 14.8838 2.88218 13.9664 2.36144 12.9104C1.6921 11.5531 1.44028 10.0278 1.63781 8.52744C1.83534 7.02703 2.47336 5.6189 3.47119 4.4811C4.46901 3.34329 5.78182 2.52693 7.24361 2.13525C8.7054 1.74357 10.2505 1.79415 11.6836 2.2806C13.1166 2.76705 14.3732 3.66752 15.2945 4.86815C16.2157 6.06878 16.7603 7.51563 16.8593 9.02574C16.9363 10.2006 16.7409 11.3727 16.294 12.4524Z"
              stroke="black" stroke-width="2"/>
    </svg>